# xmcd
# 
# Track frame offsets:
#     150
#     20669
#     39361
#     63925
#     81017
#     99695
#     115937
#     134633
#     156191
#     172018
#     193919
# 
# Disc length: 2830
# 
# Revision: 1
# Processed by: cddbd v1.5.2PL0 Copyright (c) Steve Scherf et al.
# Submitted via: BonkEnc v1.0.6
# 
DISCID=970b0c0b
DTITLE=Chris Rea - Blue Guitars CD2
DYEAR=2007
DGENRE=Blues
TTITLE0=Work Gang
TTITLE1=Wild Pony
TTITLE2=One Night With You
TTITLE3=Boen Bad
TTITLE4=The American Way
TTITLE5=Catwalk Woman
TTITLE6=If That's What You Want
TTITLE7=Gospel Trail
TTITLE8=Till I Find My True Love's Name
TTITLE9=Sometimes
TTITLE10=Who Killed Love
EXTD=
EXTT0=
EXTT1=
EXTT2=
EXTT3=
EXTT4=
EXTT5=
EXTT6=
EXTT7=
EXTT8=
EXTT9=
EXTT10=
PLAYORDER=
